<svg xmlns="http://www.w3.org/2000/svg" width="472" height="454" fill="none" viewBox="0 0 472 454">
  <path fill="#FFC8BB" d="m61.392 304.05-16.525 16.193 39.795 6.416-5.166-17.168"/>
  <path fill="#6864F4" d="M24.935 329.617c2.743-7.795 9.744-13.276 17.96-14.153 20.826-2.222 40.517 1.054 59.23 9.076 8.944 3.834 15.199 12.114 16.545 21.752l9.067 64.939c-3.28 31.189-130.11 17.856-126.83-13.334l24.028-68.28Z"/>
  <path fill="#5551EF" d="M127.737 411.232c-.546 5.147-4.449 9.077-10.58 11.915-4.904-48.333-49.584-83.487-98.483-75.756l6.257-17.777c2.748-7.788 9.748-13.275 17.965-14.152 20.821-2.22 40.514 1.056 59.232 9.077 8.942 3.831 15.198 12.111 16.541 21.751l9.068 64.942Z"/>
  <path fill="#0A0A19" d="M92.704 372.209c-11.294-11.476-25.5-19.48-41.083-23.146a.46.46 0 0 1 .21-.893c15.751 3.706 30.111 11.796 41.526 23.397a.458.458 0 1 1-.653.642Z"/>
  <path fill="#0A0A19" d="m127.283 411.294-9.067-64.939c-1.321-9.46-7.556-17.658-16.272-21.394-19.009-8.148-38.86-11.188-59-9.041-8.017.855-14.917 6.291-17.577 13.849L1.34 398.05a.457.457 0 1 1-.865-.305l24.029-68.28c2.777-7.89 9.977-13.564 18.344-14.456 20.297-2.166 40.303.898 59.458 9.109 9.009 3.862 15.454 12.334 16.818 22.11l9.068 64.939a.459.459 0 0 1-.908.127Z"/>
  <path fill="#D3DEF7" d="m459.214 340.844-42.94 7.868-16.962 3.097c-203.35 37.246 41.315-7.559-295.582 54.129L70.502 151.962c126.652-21.926 191.729-33.191 328.38-56.859 33.702 137.272-8.962-36.539 60.332 245.741Z"/>
  <path fill="#fff" d="m459.214 331.333-42.94 7.868-16.962 3.097-125.248 22.942-8.861 1.621-124.11 22.727c.572-.107-7.751 1.413-37.363 6.839L70.502 142.451l251.685-43.575 8.888-1.54 67.807-11.744 24.124 98.241 36.208 147.5Z"/>
  <path fill="#E6EBFD" d="m184.791 180.352-107.033 17.58-1.168-8.943 97.828-16.075-7.743-47.12 8.9-1.537 9.216 56.095Z"/>
  <path fill="#E6EBFD" d="m427.18 256.698-20.02 27.027 9.11 55.474-16.958 3.103-137.333-62.785-1.936.315 14.024 85.404-8.869 1.621-14.055-85.562-67.656 11.119-45.837 76.252 3.44 20.925-8.879 1.62-4.008-24.354 24.701-41.082-63.658-40.03-1.515-11.615 69.823 43.912 20.347-33.854 71.78-11.794-25.688-157.081 8.911-1.463 16.061 98.568 36.411-5.986-9.857-59.997 53.054-8.711-6.386-38.852 8.89-1.536 7.858 47.826-53.043 8.721 9.847 59.997-45.311 7.438 8.153 49.614 4.65-.768 68.593 31.351c-3.971-21.379-12.63-78.636-15.834-100.112l107.013-17.569 2.157 8.785-98.933 16.254c5.292 35.232 13.403 87.276 15.707 97.27l64.616 29.542-8.911-54.264 24.47-33.034 16.096-2.641 2.157 8.785-13.182 2.167Z"/>
  <path fill="#E6EBFD" d="M150.257 303.464c5.115 0 9.261-.837 9.261-1.868 0-1.032-4.146-1.869-9.261-1.869-5.115 0-9.261.837-9.261 1.869 0 1.031 4.146 1.868 9.261 1.868Zm130.601-68.959c9.54 0 17.274-.951 17.274-2.124s-7.734-2.124-17.274-2.124c-9.54 0-17.274.951-17.274 2.124s7.734 2.124 17.274 2.124Z"/>
  <path fill="#0A0A19" d="M103.278 396.488 70.044 142.507a.458.458 0 0 1 .376-.511l328.382-56.852a.46.46 0 0 1 .523.342l60.334 245.734a.457.457 0 0 1-.362.56l-355.482 65.1a.459.459 0 0 1-.537-.392ZM71.01 142.824l33.114 253.067 354.529-64.924L398.537 86.12 71.01 142.824Z"/>
  <path fill="#2F2F3F" d="M389.251 65.273s20.93-12.894 32.505 4.072a12.087 12.087 0 0 1 1.969 5.158l35.485 256.824-69.959-266.054Z"/>
  <path fill="#0A0A19" d="M458.766 331.443 388.808 65.389a.459.459 0 0 1 .203-.507c.213-.13 21.438-12.924 33.124 4.205a.458.458 0 1 1-.757.516c-10.461-15.333-29.044-5.556-31.595-4.11l69.87 265.717a.459.459 0 0 1-.887.233Z"/>
  <path fill="#2F2F3F" d="M66.429 112.374c-16.558-5.546-30.564 2.622-37.302 18.022l74.604 266.038-37.302-284.06Z"/>
  <path fill="#0A0A19" d="m77.963 203.725-11.951-91.006c-15.472-5.049-29.426 1.774-36.465 17.86a.458.458 0 1 1-.84-.367c7.177-16.402 22.041-23.573 37.867-18.272a.459.459 0 0 1 .31.375l11.987 91.291a.458.458 0 1 1-.908.119Z"/>
  <path fill="#FFC8BB" d="M79.495 309.491c15.192-36.832-1.922-44.776-1.922-44.776s23.713-40.724 15.35-51.613c-.769-.999-1.8-1.683-3.041-2.083-5.934-1.957-16.643 2.536-26.438 10.278-10.447 8.259-19.862 20.21-21.293 31.982-3.072 25.112 19.242 50.771 19.242 50.771"/>
  <path fill="#FCA495" d="m66.161 305.481-4.771-1.432s-22.307-25.654-19.236-50.772c1.431-11.771 10.84-23.721 21.286-31.983 8.468-6.687 17.616-10.947 23.775-10.715-23.48 6.123-40.8 27.472-40.8 52.867 0 16.909 7.68 32.028 19.746 42.035Z"/>
  <path fill="#0A0A19" d="M79.321 309.915a.46.46 0 0 1-.25-.599c14.853-36.009-1.524-44.108-1.69-44.185a.46.46 0 0 1-.204-.647c.235-.404 23.463-40.581 15.381-51.102a.459.459 0 0 1 .727-.559c8.096 10.539-12.464 47.154-15.078 51.711 2.693 1.568 15.702 11.214 1.712 45.131a.46.46 0 0 1-.598.25Z"/>
  <path fill="#FCA495" d="M89.882 211.019c-.874 4.219-4.103 8.437-8.943 11.026-6.396 3.44-13.56 2.966-17.495-.748 9.795-7.742 20.504-12.235 26.438-10.278Z"/>
  <path fill="#FFC8BB" d="m397.87 325.185-61.828 33.539s-16.254 6.26-28.92-10.31c-5.239-6.859-12.74-11.625-21.072-13.845a132.77 132.77 0 0 0-9.511-2.156 99.611 99.611 0 0 0-8.164-1.221c-4.25-.452-6.448-2.63-6.848-5.428-1.273-8.732 14.886-23.607 40.682-11.593 0 0-19.421-38.031-22.387-59.956-.853-6.291-.348-11.256 2.356-13.623.979-.853 2.041-1.242 3.198-1.242 11.341-.021 29.836 37.705 30.415 38.883-.148-.61 0-9.337 5.541-11.93 6.134-2.87 15.1 3.367 15.1 3.367s5.901-15.844 18.905-3.367c0 0 4.481-7.995 13.855-.536 9.384 7.459 31.677 34.843 28.678 59.418Z"/>
  <path fill="#FCA495" d="m397.87 325.183-61.826 33.541s-14.34 5.523-26.568-7.537c35.035-4.019 62.23-33.765 62.23-69.874 0-5.058-.538-9.999-1.558-14.752 9.855 8.45 30.623 34.847 27.722 58.622Z"/>
  <path fill="#FA5743" d="M338.07 352.796c15.65-14.488 32.625-24.437 51.213-28.856 9.793-2.328 20.088.767 27.215 7.875l46.435 46.304c19.953 33.036-89.212 98.968-109.165 65.932l-21.764-68.018c-2.645-8.265-.302-17.342 6.066-23.237Z"/>
  <path fill="#F72C16" d="M356.462 400.902c0 19.846 7.125 38.017 18.958 52.115-9.712.421-17.562-2.193-21.653-8.969l-21.761-68.012c-2.649-8.271-.304-17.348 6.06-23.238 15.656-14.492 32.628-24.437 51.22-28.859 6.132-1.459 12.452-.788 18.073 1.656-29.835 11.986-50.897 41.185-50.897 75.307Z"/>
  <path fill="#0A0A19" d="M360.042 376.988a.459.459 0 0 1-.3-.575c5.083-16.174 14.94-30.176 28.507-40.492a.458.458 0 1 1 .555.729c-13.415 10.201-23.162 24.045-28.187 40.038a.46.46 0 0 1-.575.3Z"/>
  <path fill="#0A0A19" d="m353.331 444.187-21.761-68.012c-2.7-8.429-.272-17.737 6.185-23.713 16.147-14.946 33.448-24.693 51.425-28.969 9.775-2.323 20.366.741 27.642 7.999l46.43 46.305a.457.457 0 1 1-.647.649l-46.431-46.305c-7.052-7.034-17.315-10.006-26.782-7.756-17.821 4.239-34.985 13.912-51.014 28.749-6.198 5.736-8.527 14.67-5.935 22.762l21.761 68.012a.458.458 0 0 1-.873.279Z"/>
  <path fill="#FCA495" d="M279.822 254.215c-.853-6.291-.348-11.256 2.356-13.623.979-.853 2.041-1.242 3.198-1.242 3.967 5.422 1.152 13.314-5.554 14.865Zm-3.272 77.756c0 .147 0 .295-.011.442a99.611 99.611 0 0 0-8.164-1.221c-4.25-.452-6.448-2.63-6.848-5.428a8.76 8.76 0 0 1 6.228-2.588 8.792 8.792 0 0 1 8.795 8.795Z"/>
  <path fill="#39C0C1" d="M284.284 54.734c-19.462-.832-37.975 6.171-52.038 19.64-14.063 13.47-21.776 31.627-21.776 51.088 0 27.058 15.012 51.268 39.102 63.312 14.953 7.478 25.633 22.549 28.719 40.704.178 1.483 1.365 2.613 2.848 2.613h.119c1.424 0 2.67-1.008 2.907-2.434l.119-.712c2.967-17.268 14.122-32.218 30.677-41.179 22.666-12.224 36.907-35.84 37.145-61.591v-.652c0-37.56-30.322-69.248-67.822-70.79Zm-2.967 98.557c-14.656 0-26.523-11.868-26.523-26.522 0-14.539 11.867-26.464 26.523-26.464 14.597 0 26.524 11.925 26.524 26.464 0 14.654-11.927 26.522-26.524 26.522Z"/>
  <path fill="#0A0A19" d="M281.318 153.749c-14.878 0-26.983-12.103-26.983-26.98 0-14.845 12.105-26.922 26.983-26.922 14.877 0 26.981 12.077 26.981 26.922 0 14.877-12.104 26.98-26.981 26.98Zm0-52.985c-14.373 0-26.066 11.666-26.066 26.005 0 14.371 11.693 26.063 26.066 26.063 14.372 0 26.064-11.692 26.064-26.063 0-14.339-11.692-26.005-26.064-26.005Zm-68.268 6.042a.46.46 0 0 1-.443-.581c3.38-12.183 10.061-23.311 19.322-32.182 14.183-13.584 32.782-20.598 52.375-19.767.253.01.449.225.438.477a.453.453 0 0 1-.478.439c-19.348-.831-37.701 6.103-51.701 19.514-9.142 8.756-15.737 19.74-19.072 31.764a.459.459 0 0 1-.441.336Zm99.052-44.514a.46.46 0 0 1-.202-.047 69.926 69.926 0 0 0-6.336-2.738.458.458 0 1 1 .322-.859 71.015 71.015 0 0 1 6.419 2.774.46.46 0 0 1-.203.87Z"/>
  <path fill="#FFBB32" d="M151.582 222.754c-8.61-.368-16.799 2.73-23.02 8.688-6.221 5.959-9.633 13.991-9.633 22.6 0 11.969 6.64 22.679 17.297 28.007 6.615 3.308 11.34 9.975 12.705 18.006.186 1.553 2.363 1.497 2.599.08.08-.187 1.085-11.745 13.623-18.532a31.294 31.294 0 0 0 16.431-27.246v-.288c0-16.616-13.413-30.634-30.002-31.315Zm-1.312 43.598c-6.484 0-11.734-5.249-11.734-11.732 0-6.432 5.25-11.707 11.734-11.707 6.457 0 11.733 5.275 11.733 11.707 0 6.483-5.276 11.732-11.733 11.732Z"/>
  <path fill="#0A0A19" d="M150.27 266.811c-6.723 0-12.192-5.469-12.192-12.191 0-6.708 5.469-12.165 12.192-12.165 6.722 0 12.191 5.457 12.191 12.165 0 6.722-5.469 12.191-12.191 12.191Zm0-23.439c-6.218 0-11.275 5.046-11.275 11.248 0 6.217 5.057 11.274 11.275 11.274 6.217 0 11.274-5.057 11.274-11.274 0-6.202-5.057-11.248-11.274-11.248Zm-29.037-1.202a.457.457 0 0 1-.242-.601 31.322 31.322 0 0 1 3.64-6.357.457.457 0 1 1 .737.545 30.42 30.42 0 0 0-3.534 6.171.458.458 0 0 1-.601.242Zm54.886-4.824c-10.425-15.987-31.943-18.701-45.892-6.793a.458.458 0 1 1-.595-.697c14.423-12.313 36.567-9.401 47.255 6.99a.459.459 0 0 1-.768.5Zm-37.818 122.088a.458.458 0 0 1-.158-.629l2.36-3.93a.46.46 0 0 1 .786.472l-2.36 3.93a.458.458 0 0 1-.628.157Zm4.719-7.859a.458.458 0 0 1-.157-.628l2.36-3.93a.457.457 0 1 1 .785.472l-2.359 3.929a.458.458 0 0 1-.629.157Zm4.719-7.858a.459.459 0 0 1-.157-.629l2.36-3.929a.458.458 0 1 1 .786.472l-2.36 3.929a.459.459 0 0 1-.629.157Zm4.72-7.858a.459.459 0 0 1-.157-.629l2.36-3.93a.46.46 0 0 1 .786.472l-2.36 3.93a.459.459 0 0 1-.629.157Zm4.72-7.859a.458.458 0 0 1-.158-.629l2.36-3.929a.458.458 0 0 1 .786.472l-2.36 3.929a.457.457 0 0 1-.628.157Zm4.719-7.858a.459.459 0 0 1-.157-.629l2.36-3.929a.456.456 0 0 1 .628-.157c.218.13.288.411.158.628l-2.36 3.93a.46.46 0 0 1-.629.157Zm4.719-7.858a.459.459 0 0 1-.157-.629l2.36-3.93a.459.459 0 0 1 .786.472l-2.36 3.929a.458.458 0 0 1-.629.158Zm4.72-7.859a.459.459 0 0 1-.157-.629l2.36-3.929a.458.458 0 1 1 .786.472l-2.36 3.929a.458.458 0 0 1-.629.157Zm4.72-7.858a.458.458 0 0 1-.157-.629l2.359-3.929a.458.458 0 1 1 .786.471l-2.36 3.93a.458.458 0 0 1-.628.157Zm4.608-8.022a.457.457 0 0 1 .374-.529l4.519-.768a.459.459 0 0 1 .154.903l-4.519.768a.457.457 0 0 1-.528-.374Zm9.036-1.538a.46.46 0 0 1 .375-.529l4.518-.768a.465.465 0 0 1 .53.375.458.458 0 0 1-.376.528l-4.518.769a.458.458 0 0 1-.529-.375Zm9.037-1.537a.459.459 0 0 1 .375-.529l4.518-.769a.464.464 0 0 1 .529.375.459.459 0 0 1-.375.529l-4.518.769a.459.459 0 0 1-.529-.375Zm9.037-1.538a.457.457 0 0 1 .374-.528l4.519-.769a.462.462 0 0 1 .529.375.46.46 0 0 1-.375.529l-4.519.768a.457.457 0 0 1-.528-.375Zm9.036-1.537a.458.458 0 0 1 .375-.528l4.519-.769a.459.459 0 0 1 .154.903l-4.519.769a.459.459 0 0 1-.529-.375Zm9.037-1.537a.459.459 0 0 1 .375-.529l4.518-.769a.459.459 0 0 1 .154.903l-4.518.769a.458.458 0 0 1-.529-.374Zm9.037-1.538a.458.458 0 0 1 .375-.528l4.518-.769a.458.458 0 1 1 .154.903l-4.518.769a.458.458 0 0 1-.529-.375Zm9.037-1.537a.458.458 0 0 1 .375-.529l4.518-.769a.459.459 0 0 1 .154.904l-4.518.768a.458.458 0 0 1-.529-.374Zm9.037-1.538a.457.457 0 0 1 .375-.528l.923-.158-.458-2.691a.46.46 0 0 1 .375-.529.464.464 0 0 1 .529.375l.535 3.143a.459.459 0 0 1-.375.529l-1.375.234a.458.458 0 0 1-.529-.375Zm.072-7.895-.77-4.518a.459.459 0 0 1 .903-.154l.77 4.518a.457.457 0 1 1-.903.154Zm-1.539-9.037-.769-4.518a.459.459 0 0 1 .904-.154l.769 4.518a.459.459 0 0 1-.904.154Zm-1.538-9.036-.769-4.519a.456.456 0 0 1 .375-.528.456.456 0 0 1 .528.374l.77 4.519a.458.458 0 0 1-.904.154Zm-1.538-9.037-.769-4.518a.457.457 0 1 1 .903-.154l.769 4.518a.457.457 0 1 1-.903.154Zm-1.538-9.037-.769-4.518a.457.457 0 1 1 .903-.154l.769 4.518a.457.457 0 1 1-.903.154Zm-1.538-9.037-.769-4.518a.457.457 0 1 1 .903-.154l.769 4.518a.458.458 0 1 1-.903.154Zm1.746-6.657a.457.457 0 0 1 .387-.519l4.536-.659a.454.454 0 0 1 .519.388.457.457 0 0 1-.387.519l-4.536.659a.457.457 0 0 1-.519-.388Zm9.072-1.317a.457.457 0 0 1 .387-.519l4.536-.659a.453.453 0 0 1 .519.388.458.458 0 0 1-.388.519l-4.535.659a.457.457 0 0 1-.519-.388Zm9.071-1.318a.457.457 0 0 1 .387-.519l4.05-.588a.453.453 0 0 1 .519.388.457.457 0 0 1-.388.519l-4.049.588a.458.458 0 0 1-.519-.388Z"/>
  <path fill="#fff" d="M415.405 345.538a6.129 6.129 0 0 1-6.126 6.126 6.129 6.129 0 0 1-6.125-6.126 6.123 6.123 0 0 1 6.125-6.125 6.124 6.124 0 0 1 6.126 6.125Z"/>
  <path fill="#0A0A19" d="M402.695 345.538c0-5.535 6.432-8.56 10.7-5.139a.459.459 0 0 1-.573.715c-3.676-2.946-9.21-.338-9.21 4.424 0 4.63 5.265 7.278 8.979 4.599a.457.457 0 1 1 .536.743c-4.31 3.111-10.432.042-10.432-5.342Z"/>
  <path fill="#FCA495" d="M364.514 280.853c-2.312-8.327-9.395-14.136-9.466-14.194a.458.458 0 1 1 .577-.712c.3.242 7.379 6.044 9.773 14.661a.458.458 0 1 1-.884.245Zm-19.258 1.956c-2.21-7.218-9.041-12.726-9.11-12.781a.459.459 0 0 1 .571-.717c.29.231 7.123 5.742 9.416 13.23a.458.458 0 1 1-.877.268Zm-24.375 6.978c-1.283-6.787-5.382-11.195-5.424-11.239a.46.46 0 0 1 .667-.63c.175.186 4.322 4.637 5.658 11.699a.457.457 0 1 1-.901.17Z"/>
  <path fill="#fff" d="M42.994 340.75a6.129 6.129 0 0 1-6.126 6.126 6.129 6.129 0 0 1-6.125-6.126 6.124 6.124 0 0 1 6.125-6.125 6.124 6.124 0 0 1 6.126 6.125Z"/>
  <path fill="#0A0A19" d="M36.868 347.334a.458.458 0 1 1 0-.916 5.674 5.674 0 0 0 5.667-5.668 5.673 5.673 0 0 0-5.667-5.667 5.673 5.673 0 0 0-5.667 5.667.458.458 0 1 1-.917 0 6.591 6.591 0 0 1 6.584-6.584 6.592 6.592 0 0 1 6.584 6.584 6.591 6.591 0 0 1-6.584 6.584Z"/>
  <path fill="#FFC8BB" d="M249.555 412.352a.98.98 0 0 1-1.23 1.218l-10.604-3.341a32.916 32.916 0 0 1-18.587 5.719c-18.261 0-33.053-14.803-33.053-33.065 0-18.273 14.792-33.065 33.053-33.065 18.262 0 33.077 14.792 33.077 33.065 0 7.02-2.181 13.517-5.917 18.865l3.261 10.604Z"/>
  <path fill="#0A0A19" d="M247.483 366.293a.458.458 0 0 1-.393-.222 32.758 32.758 0 0 0-16.94-13.889.457.457 0 0 1-.276-.586.457.457 0 0 1 .586-.277 33.67 33.67 0 0 1 17.415 14.279.459.459 0 0 1-.392.695Zm-24.667-15.814a.463.463 0 0 1-.051-.003c-1.198-.133-2.42-.2-3.63-.2a.458.458 0 1 1 0-.917c1.244 0 2.499.07 3.732.206a.46.46 0 0 1-.051.914Z"/>
  <path fill="#413DEA" d="m196.83 342.037-10.28-19.412a1.376 1.376 0 0 1 2.431-1.288l10.279 19.413a1.375 1.375 0 0 1-2.43 1.287Zm-5.773 5.555a78.474 78.474 0 0 0-16.756-6.54 1.374 1.374 0 1 1 .698-2.66 81.209 81.209 0 0 1 17.345 6.769 1.376 1.376 0 0 1-1.287 2.431Zm13.935-7.77a1.374 1.374 0 0 1-.932-1.706l4.818-16.433a1.374 1.374 0 1 1 2.639.774l-4.818 16.432a1.375 1.375 0 0 1-1.707.933Z"/>
  <path fill="#0A0A19" d="M237.286 376.139h-34.78a.688.688 0 1 1 0-1.375h34.78a.688.688 0 0 1 0 1.375Zm0 7.912h-34.78a.688.688 0 1 1 0-1.375h34.78a.688.688 0 0 1 0 1.375Zm-17.39 7.911h-17.39a.688.688 0 1 1 0-1.375h17.39a.688.688 0 0 1 0 1.375Zm228.209-28.628c-39.165 22.58-75.871 44.482-100.031 62.928l-3.93-12.282c23.88-20.843 58.438-40.214 95.314-59.266l8.647 8.62Z"/>
  <path fill="#fff" d="M429.59 386.323c0 14.6-11.84 26.433-26.44 26.433-14.6 0-26.433-11.833-26.433-26.433s11.833-26.439 26.433-26.439 26.44 11.839 26.44 26.439Z"/>
  <path fill="#FFBB32" d="M423.024 386.322c0 10.974-8.899 19.868-19.873 19.868-10.974 0-19.868-8.894-19.868-19.868 0-10.973 8.894-19.872 19.868-19.872 10.974 0 19.873 8.899 19.873 19.872Z"/>
  <path fill="#0A0A19" d="M403.15 413.214c-14.828 0-26.891-12.063-26.891-26.891 0-14.831 12.063-26.898 26.891-26.898 14.831 0 26.898 12.067 26.898 26.898 0 14.828-12.067 26.891-26.898 26.891Zm0-52.872c-14.322 0-25.974 11.655-25.974 25.981 0 14.322 11.652 25.974 25.974 25.974 14.326 0 25.981-11.652 25.981-25.974 0-14.326-11.655-25.981-25.981-25.981Z"/>
  <path fill="#fff" d="M406.531 389.445c-5.151 5.151-13 5.651-13 5.651s.499-7.849 5.65-13c5.152-5.152 13.001-5.651 13.001-5.651s-.5 7.849-5.651 13Z"/>
  <path fill="#0A0A19" d="M404.363 385.463a1.507 1.507 0 0 1-3.013 0c0-.836.671-1.514 1.506-1.514.836 0 1.507.678 1.507 1.514ZM130.934 89.819a.458.458 0 0 1-.458-.459c0-6.274-5.11-11.378-11.391-11.378a.458.458 0 1 1 0-.917c5.632 0 10.393 3.799 11.849 8.966 1.457-5.167 6.217-8.966 11.849-8.966a.458.458 0 1 1 0 .917c-6.281 0-11.391 5.104-11.391 11.378a.458.458 0 0 1-.458.459Zm-27.341-20.972a.458.458 0 0 1-.458-.458c0-9.94-8.095-18.025-18.044-18.025a.458.458 0 1 1 0-.917c9.029 0 16.603 6.336 18.502 14.792 1.899-8.456 9.473-14.792 18.502-14.792a.458.458 0 1 1 0 .917c-9.949 0-18.044 8.086-18.044 18.025a.458.458 0 0 1-.458.458Zm54.239-7.378a.458.458 0 0 1-.458-.459c0-5.547-4.518-10.06-10.072-10.06a.458.458 0 0 1 0-.917c4.967 0 9.175 3.309 10.53 7.836 1.356-4.527 5.564-7.836 10.531-7.836a.458.458 0 1 1 0 .916c-5.554 0-10.072 4.514-10.072 10.061a.458.458 0 0 1-.459.459Z"/>
  <path fill="#FCA495" d="M457.855 234.708 435.928 88.055a1.375 1.375 0 0 1 2.72-.406L460.574 234.3a1.374 1.374 0 1 1-2.719.407Zm10.962-1.304-1.834-12.268a1.375 1.375 0 0 1 2.72-.407l1.834 12.269a1.375 1.375 0 1 1-2.72.406Zm-3.923-34.153c-.67 0-1.256-.489-1.358-1.172l-7.413-49.58a1.376 1.376 0 0 1 2.72-.406l7.412 49.58a1.374 1.374 0 0 1-1.361 1.578Z"/>
  <path fill="#E6EBFD" d="M356.241 15.058c0 7.804-6.322 14.137-14.126 14.137-7.804 0-14.126-6.333-14.126-14.137S334.311.932 342.115.932c7.804 0 14.126 6.322 14.126 14.126Zm-56.806 410.379c0 4.317-3.497 7.82-7.814 7.82s-7.814-3.503-7.814-7.82a7.811 7.811 0 0 1 7.814-7.813 7.811 7.811 0 0 1 7.814 7.813Z"/>
</svg>
